<svg width="80" height="80" viewBox="0 0 80 80" fill="none" xmlns="http://www.w3.org/2000/svg">
<path d="M40 32C33.372 32 28 37.3744 28 44C28 50.628 33.372 56 40 56C46.6264 56 52 50.628 52 44C52 37.3744 46.6264 32 40 32ZM72 20H62.4C61.08 20 59.6576 18.976 59.2408 17.7232L56.7592 10.276C56.3408 9.024 54.92 8 53.6 8H26.4C25.08 8 23.6576 9.024 23.2408 10.2768L20.7592 17.724C20.3408 18.976 18.92 20 17.6 20H8C3.6 20 0 23.6 0 28V64C0 68.4 3.6 72 8 72H72C76.4 72 80 68.4 80 64V28C80 23.6 76.4 20 72 20ZM40 64C28.9544 64 20 55.0456 20 44C20 32.9552 28.9544 24 40 24C51.044 24 60 32.9552 60 44C60 55.0456 51.044 64 40 64ZM69.2 33.5944C67.6544 33.5944 66.4 32.3416 66.4 30.7944C66.4 29.2488 67.6544 27.9944 69.2 27.9944C70.7472 27.9944 72 29.2488 72 30.7944C72 32.3416 70.7464 33.5944 69.2 33.5944Z" fill="#888888"/>
</svg>
